<svg version="1.2" xmlns="http://www.w3.org/2000/svg" viewBox="0 0 1080 1080">
    <rect width="1080" height="1080" fill='green' />
    <path fill-rule="evenodd" class="s0" fill="#1f5Ff6" d="m964.3 0h-848.6c-15.2 0-30.3 3-44.3 8.8-14 5.8-26.8 14.3-37.5 25.1-10.8 10.7-19.3 23.5-25.1 37.5-5.8 14-8.8 29.1-8.8 44.3v848.6c0 15.2 3 30.3 8.8 44.3 5.8 14 14.3 26.8 25.1 37.5 10.7 10.8 23.5 19.3 37.5 25.1 14 5.8 29.1 8.8 44.3 8.8h330.8v-367.2h-151.8v-172.8h151.8v-131.7c0-149.8 89.3-232.6 225.9-232.6 65.4 0 133.9 11.6 133.9 11.6v147.1h-75.4c-74.3 0-97.4 46.1-97.4 93.4v112.2h165.7l-26.5 172.8h-139.2v367.2h330.8c15.2 0 30.3-3 44.3-8.8 14-5.8 26.8-14.3 37.5-25.1 10.8-10.7 19.3-23.5 25.1-37.5 5.8-14 8.8-29.1 8.8-44.3v-848.6c0-15.2-3-30.3-8.8-44.3-5.8-14-14.3-26.8-25.1-37.5-10.7-10.8-23.5-19.3-37.5-25.1-14-5.8-29.1-8.8-44.3-8.8z" />
</svg>